<svg xmlns="http://www.w3.org/2000/svg" xmlns:xlink="http://www.w3.org/1999/xlink" aria-hidden="true" role="img" class="iconify iconify--vscode" width="31.88" height="32" preserveAspectRatio="xMidYMid meet" viewBox="0 0 256 257"><defs><linearGradient id="IconifyId1813088fe1fbc01fb466" x1="-.828%" x2="57.636%" y1="7.652%" y2="78.411%"><stop offset="0%" stop-color="rgba(0,0,0,0)"></stop><stop offset="100%" stop-color="rgba(0,0,0,0)"></stop></linearGradient><linearGradient id="IconifyId1813088fe1fbc01fb467" x1="43.376%" x2="50.316%" y1="2.242%" y2="89.03%"><stop offset="0%" stop-color="#5D42F3"></stop><stop offset="100%" stop-color="#5D42F3"></stop></linearGradient><filter id="IconifyId1813088fe1fbc01fb468" x="0%" y="0%" width="100%" height="100%"><fegaussianblur in="SourceAlpha" stdDeviation="0.5"></fegaussianblur><feoffset dy="1" result="offsetblur"></feoffset><feflood></feflood><fecomposite in2="offsetblur" operator="in"></fecomposite><feblend in="SourceGraphic" mode="normal"></feblend></filter></defs><path fill="url(#IconifyId1813088fe1fbc01fb466)" d="M209.608 128.908c0 46.983-24.387 87.778-61.931 111.194l.04 1.963c38.875-24.119 64.1-65.864 64.1-113.157c0-48.015-25.98-89.76-64.1-113.156l-.04 1.963c37.544 23.416 61.931 64.21 61.931 111.193z" filter="url(#IconifyId1813088fe1fbc01fb468)"></path><path fill="#5D42F3" d="M209.608 128.908c0 46.983-24.387 87.778-61.931 111.194l.04 1.963c38.875-24.119 64.1-65.864 64.1-113.157c0-48.015-25.98-89.76-64.1-113.156l-.04 1.963c37.544 23.416 61.931 64.21 61.931 111.193z"></path><path fill="url(#IconifyId1813088fe1fbc01fb466)" d="M127.501 19.817L115.708 0l-11.793 19.817L92.122 64.54l19.817 11.792L127.501 96.15l15.562-19.818l19.816-11.792z" filter="url(#IconifyId1813088fe1fbc01fb468)" transform="translate(-35.847 -19.817) scale(3.258)"></path><path fill="#42A5F5" d="M127.501 19.817L115.708 0l-11.793 19.817L92.122 64.54l19.817 11.792L127.501 96.15l15.562-19.818l19.816-11.792z"></path><path fill="#5D42F3" d="M127.501 19.817L115.708 0l-11.793 19.817L92.122 64.54l19.817 11.792L127.501 96.15l15.562-19.818l19.816-11.792z"></path></svg>